<svg width="20" height="20" viewBox="0 0 20 20" style="color:#ffffff" xmlns="http://www.w3.org/2000/svg" class="h-full w-full"><rect width="20" height="20" x="0" y="0" rx="0" fill="transparent" stroke="transparent" stroke-width="0" stroke-opacity="0%" paint-order="stroke"></rect><svg width="20px" height="20px" viewBox="0 0 22 22" fill="#ffffff" x="-1" y="-1" role="img" style="display:inline-block;vertical-align:middle" xmlns="http://www.w3.org/2000/svg"><g fill="#ffffff"><g id="evaCreditCardFill0"><g id="evaCreditCardFill1"><path id="evaCreditCardFill2" fill="currentColor" d="M19 5H5a3 3 0 0 0-3 3v8a3 3 0 0 0 3 3h14a3 3 0 0 0 3-3V8a3 3 0 0 0-3-3Zm-8 10H7a1 1 0 0 1 0-2h4a1 1 0 0 1 0 2Zm6 0h-2a1 1 0 0 1 0-2h2a1 1 0 0 1 0 2Zm3-6H4V8a1 1 0 0 1 1-1h14a1 1 0 0 1 1 1Z"/></g></g></g></svg></svg>