<svg width="20" height="20" viewBox="0 0 20 20" fill="none" xmlns="http://www.w3.org/2000/svg">
<path d="M10.0007 11.6654C10.9211 11.6654 11.6673 10.9192 11.6673 9.9987C11.6673 9.07822 10.9211 8.33203 10.0007 8.33203C9.08018 8.33203 8.33398 9.07822 8.33398 9.9987C8.33398 10.9192 9.08018 11.6654 10.0007 11.6654Z" stroke="white" stroke-width="1.5" stroke-linecap="round" stroke-linejoin="round"/>
<path d="M16.666 15C17.716 13.6083 18.3327 11.875 18.3327 10C18.3327 8.125 17.716 6.39167 16.666 5" stroke="white" stroke-width="1.5" stroke-linecap="round" stroke-linejoin="round"/>
<path d="M3.33268 5C2.28268 6.39167 1.66602 8.125 1.66602 10C1.66602 11.875 2.28268 13.6083 3.33268 15" stroke="white" stroke-width="1.5" stroke-linecap="round" stroke-linejoin="round"/>
<path d="M14 13C14.625 12.1667 15 11.125 15 10C15 8.87501 14.625 7.83333 14 7" stroke="white" stroke-width="1.5" stroke-linecap="round" stroke-linejoin="round"/>
<path d="M6.00001 7C5.37501 7.83333 5 8.87501 5 10C5 11.125 5.37501 12.1667 6.00001 13" stroke="white" stroke-width="1.5" stroke-linecap="round" stroke-linejoin="round"/>
</svg>
