<svg width="18" height="20" viewBox="0 0 18 20" fill="none" xmlns="http://www.w3.org/2000/svg">
<path d="M7 1L6.33744 1.23384C3.75867 2.144 2.46928 2.59908 1.73464 3.63742C1 4.67576 1 6.0431 1 8.77777V11.2222C1 13.9569 1 15.3242 1.73464 16.3626C2.46928 17.4009 3.75867 17.856 6.33744 18.7662L7 19" stroke="url(#paint0_linear_1386_3617)" stroke-width="1.5" stroke-linecap="round"/>
<path d="M17 10L7 10M17 10C17 9.29977 15.0057 7.99153 14.5 7.5M17 10C17 10.7002 15.0057 12.0085 14.5 12.5" stroke="url(#paint1_linear_1386_3617)" stroke-width="1.5" stroke-linecap="round" stroke-linejoin="round"/>
<defs>
<linearGradient id="paint0_linear_1386_3617" x1="0.945455" y1="1" x2="8.63457" y2="1.78962" gradientUnits="userSpaceOnUse">
<stop stop-color="#FF7070"/>
<stop offset="1" stop-color="#FF4545"/>
</linearGradient>
<linearGradient id="paint1_linear_1386_3617" x1="6.90909" y1="7.5" x2="16.2957" y2="13.2837" gradientUnits="userSpaceOnUse">
<stop stop-color="#FF7070"/>
<stop offset="1" stop-color="#FF4545"/>
</linearGradient>
</defs>
</svg>
