<svg width="26" height="26" viewBox="0 0 26 26" fill="none" xmlns="http://www.w3.org/2000/svg">
<path d="M13.0007 15.1651C14.1973 15.1651 15.1673 14.1951 15.1673 12.9985C15.1673 11.8018 14.1973 10.8318 13.0007 10.8318C11.804 10.8318 10.834 11.8018 10.834 12.9985C10.834 14.1951 11.804 15.1651 13.0007 15.1651Z" stroke="#2d2d2d" stroke-width="1.5" stroke-linecap="round" stroke-linejoin="round"/>
<path d="M21.666 19.5C23.031 17.6908 23.8327 15.4375 23.8327 13C23.8327 10.5625 23.031 8.30917 21.666 6.5" stroke="#2d2d2d" stroke-width="1.5" stroke-linecap="round" stroke-linejoin="round"/>
<path d="M4.33268 6.5C2.96768 8.30917 2.16602 10.5625 2.16602 13C2.16602 15.4375 2.96768 17.6908 4.33268 19.5" stroke="#2d2d2d" stroke-width="1.5" stroke-linecap="round" stroke-linejoin="round"/>
<path d="M18.2002 16.8999C19.0127 15.8165 19.5002 14.4624 19.5002 12.9999C19.5002 11.5374 19.0127 10.1832 18.2002 9.09985" stroke="#2d2d2d" stroke-width="1.5" stroke-linecap="round" stroke-linejoin="round"/>
<path d="M7.80001 9.09985C6.98751 10.1832 6.5 11.5374 6.5 12.9999C6.5 14.4624 6.98751 15.8165 7.80001 16.8999" stroke="#2d2d2d" stroke-width="1.5" stroke-linecap="round" stroke-linejoin="round"/>
</svg>
