<svg width="22" height="22" viewBox="0 0 22 22" fill="none" xmlns="http://www.w3.org/2000/svg">
<path fill-rule="evenodd" clip-rule="evenodd" d="M0.729459 6.47472C0.166992 7.5023 0.166992 8.74186 0.166992 11.221V12.8688C0.166992 17.0947 0.166992 19.2077 1.4362 20.5206C2.7054 21.8334 4.74815 21.8334 8.83366 21.8334H13.167C17.2525 21.8334 19.2952 21.8334 20.5645 20.5206C21.8337 19.2077 21.8337 17.0947 21.8337 12.8688V11.221C21.8337 8.74186 21.8337 7.5023 21.2712 6.47472C20.7087 5.44714 19.6811 4.80939 17.626 3.53388L15.4593 2.18919C13.2868 0.840895 12.2006 0.166748 11.0003 0.166748C9.80006 0.166748 8.71383 0.840896 6.54136 2.18919L4.3747 3.53389C2.31952 4.80939 1.29193 5.44714 0.729459 6.47472ZM8.23416 14.6807C7.87366 14.4135 7.3648 14.4891 7.09759 14.8496C6.83038 15.2101 6.906 15.7189 7.2665 15.9862C8.31994 16.767 9.60827 17.2292 11.0003 17.2292C12.3924 17.2292 13.6807 16.767 14.7342 15.9862C15.0947 15.7189 15.1703 15.2101 14.9031 14.8496C14.6358 14.4891 14.127 14.4135 13.7665 14.6807C12.9775 15.2655 12.0251 15.6042 11.0003 15.6042C9.9756 15.6042 9.02319 15.2655 8.23416 14.6807Z" fill="#2D2D2D"/>
</svg>
