<svg width="26" height="26" viewBox="0 0 26 26" fill="none" xmlns="http://www.w3.org/2000/svg">
<path d="M20.5837 9.75008C20.5837 11.3209 20.1178 12.7618 19.3162 13.9643C18.1462 15.6976 16.2937 16.9218 14.1378 17.2359C13.7695 17.3009 13.3903 17.3334 13.0003 17.3334C12.6103 17.3334 12.2312 17.3009 11.8628 17.2359C9.70699 16.9218 7.85449 15.6976 6.68449 13.9643C5.88283 12.7618 5.41699 11.3209 5.41699 9.75008C5.41699 5.55758 8.80783 2.16675 13.0003 2.16675C17.1928 2.16675 20.5837 5.55758 20.5837 9.75008Z" stroke="#2d2d2d" stroke-width="1.5" stroke-linecap="round" stroke-linejoin="round"/>
<path d="M23.021 20.0093L21.2335 20.4318C20.8327 20.5293 20.5185 20.8326 20.4318 21.2334L20.0527 22.8259C19.8468 23.6926 18.7418 23.9526 18.1677 23.2701L13.0002 17.3334L7.83267 23.2809C7.2585 23.9634 6.1535 23.7034 5.94767 22.8368L5.5685 21.2443C5.471 20.8434 5.15683 20.5293 4.76683 20.4426L2.97933 20.0201C2.156 19.8251 1.8635 18.7959 2.45933 18.2001L6.68433 13.9751C7.85433 15.7084 9.70683 16.9326 11.8627 17.2468C12.231 17.3118 12.6102 17.3443 13.0002 17.3443C13.3902 17.3443 13.7693 17.3118 14.1377 17.2468C16.2935 16.9326 18.146 15.7084 19.316 13.9751L23.541 18.2001C24.1368 18.7851 23.8443 19.8143 23.021 20.0093Z" stroke="#2d2d2d" stroke-width="1.5" stroke-linecap="round" stroke-linejoin="round"/>
<path d="M13.6281 6.47825L14.2673 7.75658C14.354 7.92991 14.5815 8.10325 14.7873 8.13575L15.9465 8.33074C16.6831 8.44991 16.8565 8.99158 16.3256 9.52242L15.4265 10.4216C15.2748 10.5732 15.1881 10.8658 15.2423 11.0824L15.5023 12.1983C15.7081 13.0758 15.2423 13.4224 14.4623 12.9566L13.379 12.3174C13.184 12.1982 12.859 12.1982 12.664 12.3174L11.5806 12.9566C10.8006 13.4116 10.3348 13.0758 10.5406 12.1983L10.8006 11.0824C10.844 10.8766 10.7681 10.5732 10.6165 10.4216L9.71731 9.52242C9.18647 8.99158 9.35981 8.46074 10.0965 8.33074L11.2556 8.13575C11.4506 8.10325 11.6781 7.92991 11.7648 7.75658L12.404 6.47825C12.7181 5.78492 13.2815 5.78492 13.6281 6.47825Z" stroke="#2d2d2d" stroke-width="1.5" stroke-linecap="round" stroke-linejoin="round"/>
</svg>
