<svg width="26" height="26" viewBox="0 0 26 26" fill="none" xmlns="http://www.w3.org/2000/svg">
<path d="M13.1441 12C13.0541 11.991 12.9459 11.991 12.8468 12C10.7027 11.9278 9 10.1691 9 8.00451C9 5.79481 10.7838 4 13 4C15.2072 4 17 5.79481 17 8.00451C16.991 10.1691 15.2883 11.9278 13.1441 12Z" stroke="#2d2d2d" stroke-width="1.5" stroke-linecap="round" stroke-linejoin="round"/>
<path d="M7.8629 16.2734C5.37903 17.7765 5.37903 20.2259 7.8629 21.7196C10.6855 23.4268 15.3145 23.4268 18.1371 21.7196C20.621 20.2166 20.621 17.7672 18.1371 16.2734C15.3248 14.5755 10.6957 14.5755 7.8629 16.2734Z" stroke="#2d2d2d" stroke-width="1.5" stroke-linecap="round" stroke-linejoin="round"/>
</svg>
