<svg width="26" height="26" viewBox="0 0 26 26" fill="none" xmlns="http://www.w3.org/2000/svg">
<path d="M20.0097 18.2326L20.4322 21.6559C20.5405 22.5551 19.5763 23.1834 18.8072 22.7176L14.268 20.0201C13.7696 20.0201 13.2822 19.9876 12.8055 19.9226C13.6072 18.9801 14.0838 17.7884 14.0838 16.4992C14.0838 13.4226 11.4188 10.9309 8.12549 10.9309C6.86882 10.9309 5.70966 11.2884 4.74549 11.9167C4.71299 11.6459 4.70215 11.3751 4.70215 11.0934C4.70215 6.16424 8.98132 2.16675 14.268 2.16675C19.5546 2.16675 23.8338 6.16424 23.8338 11.0934C23.8338 14.0184 22.328 16.6076 20.0097 18.2326Z" stroke="#2d2d2d" stroke-width="1.5" stroke-linecap="round" stroke-linejoin="round"/>
<path d="M14.0837 16.4992C14.0837 17.7884 13.607 18.9801 12.8053 19.9226C11.7328 21.2226 10.032 22.0567 8.12533 22.0567L5.29782 23.7359C4.82116 24.0284 4.21449 23.6275 4.27949 23.075L4.55032 20.9409C3.09866 19.9334 2.16699 18.3192 2.16699 16.4992C2.16699 14.5925 3.18533 12.9134 4.74533 11.9167C5.7095 11.2884 6.86866 10.9309 8.12533 10.9309C11.4187 10.9309 14.0837 13.4225 14.0837 16.4992Z" stroke="#2d2d2d" stroke-width="1.5" stroke-linecap="round" stroke-linejoin="round"/>
</svg>
