<svg width="16" height="16" viewBox="0 0 16 16" fill="none" xmlns="http://www.w3.org/2000/svg">
<g clip-path="url(#clip0_1294_5401)">
<path d="M14.4715 9.43188C14.449 8.16753 14.1268 6.96493 13.5397 5.95407C13.4455 5.79195 13.2639 5.70151 13.0777 5.7242C12.8916 5.74685 12.7369 5.87823 12.6844 6.0582C12.5093 6.65799 12.1956 7.20693 11.7048 7.75546C11.8741 6.4763 11.7728 5.29069 11.401 4.21703C10.7945 2.46583 9.4813 1.06426 7.49778 0.0513098C7.33722 -0.0307221 7.14384 -0.0133469 7.00046 0.0959352C6.85706 0.205217 6.78906 0.387031 6.82552 0.563626C7.22384 2.4913 6.46161 3.49449 5.57905 4.65613C4.97467 5.45163 4.30766 6.32945 4.03988 7.55918C3.71141 7.08211 3.4655 6.5748 3.31475 6.0582C3.26225 5.8782 3.10753 5.74682 2.9214 5.7242C2.73537 5.70142 2.55355 5.79195 2.45943 5.95407C1.8723 6.96499 1.55008 8.16756 1.52764 9.43188C1.50504 10.7029 1.7838 11.8518 2.35611 12.8467C2.87296 13.7451 3.63666 14.507 4.56466 15.0502C5.0646 15.3428 5.60255 15.5694 6.15977 15.7272C6.73293 15.8895 7.32625 15.9792 7.9216 15.9969C9.19542 16.0347 10.4286 15.7272 11.5404 15.1095C13.4755 13.9769 14.5164 11.9606 14.4715 9.43188ZM9.56145 14.3374C9.21464 14.7425 8.72754 15.0102 8.19285 15.0467C7.66 15.0832 7.06793 15.0358 6.58687 14.785C6.13639 14.5502 5.79767 14.1384 5.62533 13.6635C5.35467 12.9176 5.50645 12.1539 6.0418 11.5683C6.52233 11.0426 7.06831 10.3866 7.47409 9.50688C7.72091 8.97182 7.89653 8.39731 8.00322 7.77221C8.92682 9.37448 9.70724 10.9682 10.0206 12.6093C10.1423 13.2467 9.98352 13.8443 9.56145 14.3374ZM11.0669 14.3004C10.9023 14.3967 10.7321 14.4838 10.5573 14.5619C10.9549 13.9275 11.0879 13.2004 10.9414 12.4334C10.5173 10.212 9.33645 8.13775 8.06 6.03183C7.95131 5.85248 7.73672 5.7671 7.53453 5.82289C7.33234 5.87864 7.19181 6.06189 7.1904 6.27161C7.1739 8.73563 6.27208 9.92682 5.34979 10.9357C4.5826 11.7751 4.35613 12.9143 4.74404 13.9833C4.75591 14.016 4.76832 14.0484 4.78113 14.0805C3.2499 13.0701 2.42965 11.4373 2.46496 9.44854C2.47796 8.718 2.60405 8.01337 2.83455 7.36743C3.1409 7.96343 3.55215 8.53025 4.05256 9.0416C4.18582 9.17776 4.38819 9.21973 4.56463 9.14776C4.74104 9.07582 4.85635 8.90425 4.85635 8.71372C4.85635 7.15699 5.56998 6.21767 6.32552 5.22326C7.12343 4.17303 7.94453 3.09218 7.86788 1.34157C11.166 3.45327 11.1482 6.60917 10.5018 8.96419C10.4481 9.15988 10.5264 9.36785 10.6957 9.47957C10.8652 9.59132 11.0871 9.58138 11.2459 9.45495C12.1304 8.7505 12.748 8.07212 13.1558 7.34318C13.3919 7.99572 13.521 8.70875 13.5341 9.44851C13.5728 11.6235 12.6966 13.3466 11.0669 14.3004Z" fill="white" stroke="white" stroke-width="0.2"/>
</g>
<defs>
<clipPath id="clip0_1294_5401">
<rect width="16" height="16" fill="white"/>
</clipPath>
</defs>
</svg>
