<svg width="16" height="18" viewBox="0 0 16 18" fill="none" xmlns="http://www.w3.org/2000/svg">
<path d="M7.99855 7.61811L9.44196 8.37695L9.1663 6.7697L10.334 5.63142L8.72027 5.39692L7.99855 3.93461L7.27684 5.39692L5.66309 5.63142L6.8308 6.7697L6.55515 8.37695L7.99855 7.61811Z" stroke="white" stroke-width="1.3" stroke-miterlimit="10" stroke-linecap="round" stroke-linejoin="round"/>
<path d="M7.99707 14.6562L4.09685 8.75738C3.59957 8.01313 3.30957 7.11856 3.30957 6.15625C3.30957 3.56741 5.40823 1.46875 7.99707 1.46875C10.5859 1.46875 12.6846 3.56741 12.6846 6.15625C12.6846 7.11856 12.3946 8.01313 11.8973 8.75738L7.99707 14.6562Z" stroke="white" stroke-width="1.3" stroke-miterlimit="10" stroke-linecap="round" stroke-linejoin="round"/>
<path d="M9.5498 13C12.1123 13.2316 14 14.0239 14 14.9657C14 16.0892 11.3137 17 8 17C4.68628 17 2 16.0892 2 14.9657C2 14.0239 3.88764 13.2316 6.4502 13" stroke="white" stroke-width="1.3" stroke-miterlimit="10" stroke-linecap="round" stroke-linejoin="round"/>
</svg>
